<?xml version="1.0" standalone="no"?>
<svg viewBox="0 0 200 200" xmlns="http://www.w3.org/2000/svg">
  <path fill="#BAE6FF" d="M46.3,-69.8C59.8,-63.4,70.3,-50.2,74.7,-35.6C79,-21,77.2,-5.1,75.9,11.7C74.7,28.4,74,46,65.1,56.5C56.2,67.1,39,70.6,22.2,75.3C5.5,80,-10.7,86,-24.5,82.4C-38.2,78.8,-49.3,65.6,-61.1,52.6C-72.8,39.6,-85.1,26.8,-86.9,12.6C-88.7,-1.5,-80.1,-17.1,-71.2,-30.8C-62.3,-44.6,-53.1,-56.5,-41.2,-63.6C-29.3,-70.7,-14.7,-73,0.9,-74.3C16.4,-75.7,32.8,-76.1,46.3,-69.8Z" transform="translate(100 100)" />
</svg>
